<svg version="1.1" id="Layer_1" xmlns="http://www.w3.org/2000/svg" xmlns:xlink="http://www.w3.org/1999/xlink" x="0px" y="0px"
	 width="100%" viewBox="0 0 1024 1024" enable-background="new 0 0 1024 1024" xml:space="preserve">
<path fill="#000000" opacity="1.000000" stroke="none" 
	d="
M663.183838,672.710693 
	C646.740295,644.846130 630.557495,617.253296 614.229980,589.746338 
	C589.991577,548.911926 565.660767,508.132202 541.323914,467.356323 
	C540.085876,465.281952 539.282959,462.823761 537.009949,461.332214 
	C535.780823,462.898468 536.315674,464.616089 536.315186,466.191895 
	C536.294922,532.357544 536.305664,598.523193 536.323181,664.688843 
	C536.326111,675.650757 532.946045,679.058472 522.032349,679.055115 
	C448.367157,679.032532 374.701935,679.012451 301.036743,679.001282 
	C289.539856,678.999573 285.715302,675.322998 285.922363,663.640808 
	C287.422852,578.990906 286.235504,494.334595 286.607056,409.682281 
	C286.637421,402.763519 286.639008,402.752625 279.714813,401.572083 
	C244.434555,395.556885 209.337540,388.617462 174.479202,380.505585 
	C170.385895,379.553009 167.862350,380.285675 165.369888,384.020386 
	C151.033737,405.501770 136.420502,426.798462 121.863106,448.131805 
	C117.264496,454.870850 109.017403,456.799347 102.648407,452.749390 
	C96.307510,448.717346 94.768585,441.073761 99.522934,433.887848 
	C116.806152,407.765228 134.259567,381.754822 151.744400,355.766449 
	C155.078995,350.810089 159.690735,349.595947 166.374619,351.426544 
	C194.320923,359.080658 222.554810,365.478729 250.984848,371.055267 
	C286.312866,377.984802 321.817139,383.017822 357.906555,384.043793 
	C382.415924,384.740540 406.862305,385.093933 431.266418,382.627899 
	C444.553467,381.285217 457.606262,378.834747 469.717102,372.664276 
	C479.829803,367.511810 486.847809,359.618805 491.447296,349.411560 
	C495.087799,341.332489 497.365845,332.801392 499.683746,324.282379 
	C500.292236,322.045959 500.904175,319.732239 502.008148,317.725555 
	C504.156006,313.821594 507.440552,311.188599 512.157776,311.944611 
	C516.800842,312.688751 519.348145,315.988220 520.220398,320.431152 
	C521.769470,328.321381 519.728333,335.997070 518.200745,343.609039 
	C514.766113,360.723846 508.742493,376.669952 495.090210,388.521942 
	C482.314941,399.612671 466.802338,404.588501 450.503265,407.214111 
	C430.035645,410.511200 409.417542,410.966339 388.727478,409.533295 
	C378.598724,408.831757 368.425659,409.379120 358.268799,408.518341 
	C345.334229,407.422150 332.336792,407.088745 319.380249,406.220154 
	C315.080200,405.931915 313.164612,406.810577 313.173676,411.801300 
	C313.315643,489.966492 313.293091,568.132080 313.171906,646.297363 
	C313.165039,650.731384 314.652130,652.018677 318.940918,652.011292 
	C380.606476,651.904358 442.272400,651.875244 503.937775,652.019043 
	C509.021698,652.030945 509.964905,650.047546 509.962372,645.530457 
	C509.922485,574.198303 510.020935,502.866119 510.089478,431.533936 
	C510.094604,426.200775 510.020569,420.865417 510.147705,415.534973 
	C510.324860,408.103394 512.817871,404.290802 518.264648,402.741486 
	C525.558594,400.666779 532.251587,402.640503 535.992920,408.244507 
	C547.841064,425.991150 558.557739,444.440491 569.505493,462.740723 
	C598.502197,511.211243 627.361694,559.763794 656.282532,608.279663 
	C656.861145,609.250488 657.521790,610.172424 658.997253,612.411987 
	C658.997253,605.766846 658.999207,600.536194 658.997009,595.305542 
	C658.971924,536.139893 658.943298,476.974274 658.933594,417.808655 
	C658.933289,415.814880 658.926453,413.787872 659.258789,411.833557 
	C660.268860,405.893738 663.836548,402.834320 669.909851,402.678528 
	C674.240295,402.567444 678.575867,402.652100 682.909119,402.652924 
	C755.574707,402.666718 828.240295,402.680573 900.905884,402.698151 
	C902.738647,402.698578 904.581909,402.624146 906.402344,402.786102 
	C913.080505,403.380280 917.907288,408.262726 918.340088,414.752289 
	C918.867798,422.664764 915.168823,428.021240 907.920166,429.439362 
	C905.495544,429.913757 902.951782,429.902924 900.462341,429.903717 
	C831.796753,429.925812 763.131226,429.920624 694.465637,429.920441 
	C686.168518,429.920410 686.175354,429.921539 686.175171,438.043457 
	C686.173645,506.375702 686.164490,574.707947 686.186340,643.040222 
	C686.187134,645.502014 685.802734,648.018188 686.678223,650.449768 
	C688.574280,651.613159 690.625366,651.087036 692.562744,651.087341 
	C756.895081,651.097778 821.227478,651.021545 885.559570,651.137329 
	C890.405823,651.146057 891.821899,649.640503 891.780884,644.863098 
	C891.568848,620.198547 891.557129,595.530457 891.750000,570.865784 
	C891.787903,566.015564 890.603943,564.213989 885.379578,564.136963 
	C849.065735,563.601318 812.756775,562.736389 776.446411,561.968567 
	C767.177124,561.772644 761.858032,557.787659 761.850342,551.075195 
	C761.842590,544.336914 767.034912,540.809082 776.610107,540.577148 
	C809.097473,539.790161 841.592773,539.927551 874.081726,539.519714 
	C884.391174,539.390320 894.716248,538.807495 905.038879,538.814087 
	C914.444336,538.820068 918.325806,542.824463 918.330872,552.276062 
	C918.351318,590.275024 918.348633,628.274048 918.314209,666.273010 
	C918.306213,675.092590 914.964355,678.385193 906.268311,678.384399 
	C831.936035,678.377808 757.603821,678.366577 683.271545,678.364258 
	C681.106750,678.364197 678.901245,678.197327 676.784973,678.540710 
	C671.117920,679.460022 666.617004,677.853149 663.183838,672.710693 
z"/>
</svg>